<svg xmlns="http://www.w3.org/2000/svg" version="1.1" xmlns:xlink="http://www.w3.org/1999/xlink" xmlns:svgjs="http://svgjs.dev/svgjs" width="1000" height="750" viewBox="0 0 1000 750"><rect width="1000" height="750" fill="#ffffff"></rect><g transform="matrix(0.834,0,0,0.834,82.49454545454546,115.4193570850203)"><svg viewBox="0 0 396 247" data-background-color="#ffffff" preserveAspectRatio="xMidYMid meet" height="623" width="1000" xmlns="http://www.w3.org/2000/svg" xmlns:xlink="http://www.w3.org/1999/xlink"><g id="tight-bounds" transform="matrix(1,0,0,1,0.2400000000000091,-0.09999999999999432)"><svg viewBox="0 0 395.52 247.2" height="247.2" width="395.52"><g><svg></svg></g><g><svg viewBox="0 0 395.52 247.2" height="247.2" width="395.52"><mask id="e53dba09-54d2-4f56-877d-134d6502a690"><rect width="640" height="400" fill="white"></rect><g transform="matrix(1,0,0,1,0,91.10599923576615)"><svg viewBox="0 0 395.52 64.9880015284677" height="64.9880015284677" width="395.52"><g><svg viewBox="0 0 395.52 64.9880015284677" height="64.9880015284677" width="395.52"><g><svg viewBox="0 0 395.52 64.9880015284677" height="64.9880015284677" width="395.52"><g id="SvgjsG1016"><svg viewBox="0 0 395.52 64.9880015284677" height="64.9880015284677" width="395.52" id="SvgjsSvg1015"><g><svg viewBox="0 0 395.52 64.9880015284677" height="64.9880015284677" width="395.52"><g transform="matrix(1,0,0,1,0,0)"><svg width="395.52" viewBox="-1 -39.25 262.68 44" height="64.9880015284677" data-palette-color="#6e45e2"><path d="M9.35 0L3 0 3-34.55 19.7-34.55 19-29.8 9.35-29.8 9.35-19.25 17.75-19.25 17.75-14.5 9.35-14.5 9.35 0ZM45.1 0L38.65 0 36.95-8.1 28.05-8.1 26.4 0 20.05 0 28.75-34.55 36.45-34.55 45.1 0ZM32.5-29.7L29.05-12.9 36-12.9 32.5-29.7ZM59.5-35.25Q62.15-35.25 64.17-34.38 66.2-33.5 68.09-31.7L68.09-31.7 65.05-28.05Q63.75-29.25 62.52-29.83 61.3-30.4 59.85-30.4L59.85-30.4Q56.85-30.4 55.15-27.4 53.45-24.4 53.45-17.35L53.45-17.35Q53.45-10.4 55.15-7.38 56.85-4.35 59.95-4.35L59.95-4.35Q61.5-4.35 62.65-4.98 63.8-5.6 65.34-6.9L65.34-6.9 68.4-3.4Q66.8-1.6 64.55-0.43 62.3 0.75 59.5 0.75L59.5 0.75Q53.65 0.75 50.2-3.8 46.75-8.35 46.75-17.35L46.75-17.35Q46.75-23.3 48.4-27.3 50.05-31.3 52.92-33.27 55.8-35.25 59.5-35.25L59.5-35.25ZM69.19-34.55L90.74-34.55 90.04-29.55 82.94-29.55 82.94 0 76.59 0 76.59-29.55 69.19-29.55 69.19-34.55ZM115.14-34.55L115.14-9.7Q115.14-5.15 112.32-2.23 109.49 0.7 104.24 0.7L104.24 0.7Q98.89 0.7 96.09-2.18 93.29-5.05 93.29-9.7L93.29-9.7 93.29-34.55 99.64-34.55 99.64-10Q99.64-7.1 100.74-5.68 101.84-4.25 104.24-4.25L104.24-4.25Q106.59-4.25 107.69-5.68 108.79-7.1 108.79-10L108.79-10 108.79-34.55 115.14-34.55ZM142.99 0L136.14 0 130.04-13.95 129.44-13.95 126.99-13.95 126.99 0 120.64 0 120.64-34.55 128.79-34.55Q141.29-34.55 141.29-24.4L141.29-24.4Q141.29-21.25 139.89-18.82 138.49-16.4 135.69-15.15L135.69-15.15 142.99 0ZM129.09-18.55Q132.04-18.55 133.36-19.95 134.69-21.35 134.69-24.4L134.69-24.4Q134.69-27.25 133.31-28.58 131.94-29.9 128.79-29.9L128.79-29.9 126.99-29.9 126.99-18.55 129.09-18.55ZM168.14 0L161.69 0 159.99-8.1 151.09-8.1 149.44 0 143.09 0 151.79-34.55 159.49-34.55 168.14 0ZM155.54-29.7L152.09-12.9 159.04-12.9 155.54-29.7ZM182.53-35.25Q185.18-35.25 187.21-34.38 189.23-33.5 191.13-31.7L191.13-31.7 188.08-28.05Q186.78-29.25 185.56-29.83 184.33-30.4 182.88-30.4L182.88-30.4Q179.88-30.4 178.18-27.4 176.48-24.4 176.48-17.35L176.48-17.35Q176.48-10.4 178.18-7.38 179.88-4.35 182.98-4.35L182.98-4.35Q184.53-4.35 185.68-4.98 186.83-5.6 188.38-6.9L188.38-6.9 191.43-3.4Q189.83-1.6 187.58-0.43 185.33 0.75 182.53 0.75L182.53 0.75Q176.68 0.75 173.23-3.8 169.78-8.35 169.78-17.35L169.78-17.35Q169.78-23.3 171.43-27.3 173.08-31.3 175.96-33.27 178.83-35.25 182.53-35.25L182.53-35.25ZM194.83-34.55L201.18-34.55 201.18 0 194.83 0 194.83-34.55ZM218.63-35.25Q224.73-35.25 228.03-30.8 231.33-26.35 231.33-17.3L231.33-17.3Q231.33-8.35 228.03-3.8 224.73 0.75 218.63 0.75L218.63 0.75Q212.58 0.75 209.25-3.75 205.93-8.25 205.93-17.25L205.93-17.25Q205.93-26.15 209.25-30.7 212.58-35.25 218.63-35.25L218.63-35.25ZM218.63-30.45Q215.58-30.45 214.1-27.4 212.63-24.35 212.63-17.25L212.63-17.25Q212.63-10.1 214.13-7.13 215.63-4.15 218.63-4.15L218.63-4.15Q221.73-4.15 223.2-7.1 224.68-10.05 224.68-17.3L224.68-17.3Q224.68-24.4 223.18-27.43 221.68-30.45 218.63-30.45L218.63-30.45ZM257.68-34.55L257.68 0 249.58 0 240.83-28.3Q241.23-24.7 241.45-21.68 241.68-18.65 241.68-14.5L241.68-14.5 241.68 0 236.08 0 236.08-34.55 244.13-34.55 252.88-6.25Q252.58-8.05 252.3-11.35 252.03-14.65 252.03-18.05L252.03-18.05 252.03-34.55 257.68-34.55Z" opacity="1" transform="matrix(1,0,0,1,0,0)" fill="black" class="wordmark-text-0" id="SvgjsPath1014" stroke-width="7" stroke="black" stroke-linejoin="round"></path></svg></g></svg></g></svg></g></svg></g><g></g></svg></g></svg></g></mask><g transform="matrix(1,0,0,1,0,91.10599923576615)"><svg viewBox="0 0 395.52 64.9880015284677" height="64.9880015284677" width="395.52"><g><svg viewBox="0 0 395.52 64.9880015284677" height="64.9880015284677" width="395.52"><g><svg viewBox="0 0 395.52 64.9880015284677" height="64.9880015284677" width="395.52"><g id="textblocktransform"><svg viewBox="0 0 395.52 64.9880015284677" height="64.9880015284677" width="395.52" id="textblock"><g><svg viewBox="0 0 395.52 64.9880015284677" height="64.9880015284677" width="395.52"><g transform="matrix(1,0,0,1,0,0)"><svg width="395.52" viewBox="-1 -39.25 262.68 44" height="64.9880015284677" data-palette-color="#6e45e2"><path d="M9.35 0L3 0 3-34.55 19.7-34.55 19-29.8 9.35-29.8 9.35-19.25 17.75-19.25 17.75-14.5 9.35-14.5 9.35 0ZM45.1 0L38.65 0 36.95-8.1 28.05-8.1 26.4 0 20.05 0 28.75-34.55 36.45-34.55 45.1 0ZM32.5-29.7L29.05-12.9 36-12.9 32.5-29.7ZM59.5-35.25Q62.15-35.25 64.17-34.38 66.2-33.5 68.09-31.7L68.09-31.7 65.05-28.05Q63.75-29.25 62.52-29.83 61.3-30.4 59.85-30.4L59.85-30.4Q56.85-30.4 55.15-27.4 53.45-24.4 53.45-17.35L53.45-17.35Q53.45-10.4 55.15-7.38 56.85-4.35 59.95-4.35L59.95-4.35Q61.5-4.35 62.65-4.98 63.8-5.6 65.34-6.9L65.34-6.9 68.4-3.4Q66.8-1.6 64.55-0.43 62.3 0.75 59.5 0.75L59.5 0.75Q53.65 0.75 50.2-3.8 46.75-8.35 46.75-17.35L46.75-17.35Q46.75-23.3 48.4-27.3 50.05-31.3 52.92-33.27 55.8-35.25 59.5-35.25L59.5-35.25ZM69.19-34.55L90.74-34.55 90.04-29.55 82.94-29.55 82.94 0 76.59 0 76.59-29.55 69.19-29.55 69.19-34.55ZM115.14-34.55L115.14-9.7Q115.14-5.15 112.32-2.23 109.49 0.7 104.24 0.7L104.24 0.7Q98.89 0.7 96.09-2.18 93.29-5.05 93.29-9.7L93.29-9.7 93.29-34.55 99.64-34.55 99.64-10Q99.64-7.1 100.74-5.68 101.84-4.25 104.24-4.25L104.24-4.25Q106.59-4.25 107.69-5.68 108.79-7.1 108.79-10L108.79-10 108.79-34.55 115.14-34.55ZM142.99 0L136.14 0 130.04-13.95 129.44-13.95 126.99-13.95 126.99 0 120.64 0 120.64-34.55 128.79-34.55Q141.29-34.55 141.29-24.4L141.29-24.4Q141.29-21.25 139.89-18.82 138.49-16.4 135.69-15.15L135.69-15.15 142.99 0ZM129.09-18.55Q132.04-18.55 133.36-19.95 134.69-21.35 134.69-24.4L134.69-24.4Q134.69-27.25 133.31-28.58 131.94-29.9 128.79-29.9L128.79-29.9 126.99-29.9 126.99-18.55 129.09-18.55ZM168.14 0L161.69 0 159.99-8.1 151.09-8.1 149.44 0 143.09 0 151.79-34.55 159.49-34.55 168.14 0ZM155.54-29.7L152.09-12.9 159.04-12.9 155.54-29.7ZM182.53-35.25Q185.18-35.25 187.21-34.38 189.23-33.5 191.13-31.7L191.13-31.7 188.08-28.05Q186.78-29.25 185.56-29.83 184.33-30.4 182.88-30.4L182.88-30.4Q179.88-30.4 178.18-27.4 176.48-24.4 176.48-17.35L176.48-17.35Q176.48-10.4 178.18-7.38 179.88-4.35 182.98-4.35L182.98-4.35Q184.53-4.35 185.68-4.98 186.83-5.6 188.38-6.9L188.38-6.9 191.43-3.4Q189.83-1.6 187.58-0.43 185.33 0.75 182.53 0.75L182.53 0.75Q176.68 0.75 173.23-3.8 169.78-8.35 169.78-17.35L169.78-17.35Q169.78-23.3 171.43-27.3 173.08-31.3 175.96-33.27 178.83-35.25 182.53-35.25L182.53-35.25ZM194.83-34.55L201.18-34.55 201.18 0 194.83 0 194.83-34.55ZM218.63-35.25Q224.73-35.25 228.03-30.8 231.33-26.35 231.33-17.3L231.33-17.3Q231.33-8.35 228.03-3.8 224.73 0.75 218.63 0.75L218.63 0.75Q212.58 0.75 209.25-3.75 205.93-8.25 205.93-17.25L205.93-17.25Q205.93-26.15 209.25-30.7 212.58-35.25 218.63-35.25L218.63-35.25ZM218.63-30.45Q215.58-30.45 214.1-27.4 212.63-24.35 212.63-17.25L212.63-17.25Q212.63-10.1 214.13-7.13 215.63-4.15 218.63-4.15L218.63-4.15Q221.73-4.15 223.2-7.1 224.68-10.05 224.68-17.3L224.68-17.3Q224.68-24.4 223.18-27.43 221.68-30.45 218.63-30.45L218.63-30.45ZM257.68-34.55L257.68 0 249.58 0 240.83-28.3Q241.23-24.7 241.45-21.68 241.68-18.65 241.68-14.5L241.68-14.5 241.68 0 236.08 0 236.08-34.55 244.13-34.55 252.88-6.25Q252.58-8.05 252.3-11.35 252.03-14.65 252.03-18.05L252.03-18.05 252.03-34.55 257.68-34.55Z" opacity="1" transform="matrix(1,0,0,1,0,0)" fill="#6e45e2" class="wordmark-text-0" data-fill-palette-color="primary" id="text-0"></path></svg></g></svg></g></svg></g></svg></g><g></g></svg></g></svg></g><g mask="url(#e53dba09-54d2-4f56-877d-134d6502a690)"><g transform="matrix(4.086666666666667, 0, 0, 4.086666666666667, 91.50666666666665, 0.9999999999999858)"><svg xmlns="http://www.w3.org/2000/svg" xmlns:cc="http://creativecommons.org/ns#" xmlns:dc="http://purl.org/dc/elements/1.1/" xmlns:rdf="http://www.w3.org/1999/02/22-rdf-syntax-ns#" enable-background="new" version="1.1" viewBox="6 2 52 60" x="0" y="0" height="60" width="52" class="icon-none" data-fill-palette-color="accent" id="none"><path d="M9 2c-1.645 0-3 1.355-3 3v54c0 1.645 1.355 3 3 3h46c1.645 0 3-1.355 3-3v-54c0-1.645-1.355-3-3-3h-46z m0 2h46c0.571 0 1 0.429 1 1v54c0 0.571-0.429 1-1 1h-46c-0.571 0-1-0.429-1-1v-54c0-0.571 0.429-1 1-1z m23 4c-4.959 0-9 4.041-9 9s4.041 9 9 9 9-4.041 9-9-4.041-9-9-9z m0 2c3.878 0 7 3.122 7 7s-3.122 7-7 7-7-3.122-7-7 3.122-7 7-7z m0 2c-1.645 0-3 1.355-3 3s1.355 3 3 3c0.564 0 1 0.436 1 1s-0.436 1-1 1h-2a1 1 0 0 0-1 1 1 1 0 0 0 1 1h2c1.645 0 3-1.355 3-3s-1.355-3-3-3c-0.564 0-1-0.436-1-1s0.436-1 1-1h2a1 1 0 0 0 1-1 1 1 0 0 0-1-1h-2z m-17 18c-1.645 0-3 1.355-3 3s1.355 3 3 3 3-1.355 3-3-1.355-3-3-3z m0 2c0.564 0 1 0.436 1 1s-0.436 1-1 1-1-0.436-1-1 0.436-1 1-1z m7 2a1 1 0 0 0-1 1 1 1 0 0 0 1 1h29a1 1 0 0 0 1-1 1 1 0 0 0-1-1h-29z m-7 6c-1.645 0-3 1.355-3 3s1.355 3 3 3 3-1.355 3-3-1.355-3-3-3z m0 2c0.564 0 1 0.436 1 1s-0.436 1-1 1-1-0.436-1-1 0.436-1 1-1z m7 2a1 1 0 0 0-1 1 1 1 0 0 0 1 1h29a1 1 0 0 0 1-1 1 1 0 0 0-1-1h-29z m-7 6c-1.645 0-3 1.355-3 3s1.355 3 3 3 3-1.355 3-3-1.355-3-3-3z m0 2c0.564 0 1 0.436 1 1s-0.436 1-1 1-1-0.436-1-1 0.436-1 1-1z m7 2a1 1 0 0 0-1 1 1 1 0 0 0 1 1h29a1 1 0 0 0 1-1 1 1 0 0 0-1-1h-29z" color="#000000" fill-rule="evenodd" fill="#000000" data-fill-palette-color="accent"></path></svg></g></g></svg></g><defs></defs></svg><rect width="395.52" height="247.2" fill="none" stroke="none" visibility="hidden"></rect></g></svg></g></svg>