<svg xmlns="http://www.w3.org/2000/svg" version="1.1" xmlns:xlink="http://www.w3.org/1999/xlink" xmlns:svgjs="http://svgjs.dev/svgjs" width="1000" height="750" viewBox="0 0 1000 750"><rect width="1000" height="750" fill="#ffffff"></rect><g transform="matrix(0.834,0,0,0.834,82.49454545454546,115.4193570850203)"><svg viewBox="0 0 396 247" data-background-color="#ffffff" preserveAspectRatio="xMidYMid meet" height="623" width="1000" xmlns="http://www.w3.org/2000/svg" xmlns:xlink="http://www.w3.org/1999/xlink"><g id="tight-bounds" transform="matrix(1,0,0,1,0.2400000000000091,-0.09999999999999432)"><svg viewBox="0 0 395.52 247.2" height="247.2" width="395.52"><g><svg></svg></g><g><svg viewBox="0 0 395.52 247.2" height="247.2" width="395.52"><mask id="6350076a-62e7-49ad-afae-7b50fdac06cd"><rect width="640" height="400" fill="white"></rect><g transform="matrix(1,0,0,1,0,86.49033384246127)"><svg viewBox="0 0 395.52 74.21933231507745" height="74.21933231507745" width="395.52"><g><svg viewBox="0 0 395.52 74.21933231507745" height="74.21933231507745" width="395.52"><g><svg viewBox="0 0 395.52 74.21933231507745" height="74.21933231507745" width="395.52"><g><svg viewBox="0 0 395.52 74.21933231507745" height="74.21933231507745" width="395.52"><g id="SvgjsG1006"><svg viewBox="0 0 395.52 74.21933231507745" height="74.21933231507745" width="395.52" id="SvgjsSvg1005"><g><svg viewBox="0 0 395.52 74.21933231507745" height="74.21933231507745" width="395.52"><g transform="matrix(1,0,0,1,0,0)"><svg width="395.52" viewBox="-1 -39.25 230.13 44" height="74.21933231507745" data-palette-color="#6e45e2"><path d="M3-34.55L9.35-34.55 9.35 0 3 0 3-34.55ZM36.95-34.55L36.95 0 28.85 0 20.1-28.3Q20.5-24.7 20.72-21.68 20.95-18.65 20.95-14.5L20.95-14.5 20.95 0 15.35 0 15.35-34.55 23.4-34.55 32.15-6.25Q31.85-8.05 31.57-11.35 31.3-14.65 31.3-18.05L31.3-18.05 31.3-34.55 36.95-34.55ZM57.85-34.55L64.1-34.55 56.1 0 48.15 0 39.85-34.55 46.3-34.55 52.2-5.6 57.85-34.55ZM66.99-34.55L84.14-34.55 83.49-29.8 73.34-29.8 73.34-19.9 82.19-19.9 82.19-15.2 73.34-15.2 73.34-4.8 84.14-4.8 84.14 0 66.99 0 66.99-34.55ZM110.24-34.55L110.24 0 102.14 0 93.39-28.3Q93.79-24.7 94.02-21.68 94.24-18.65 94.24-14.5L94.24-14.5 94.24 0 88.64 0 88.64-34.55 96.69-34.55 105.44-6.25Q105.14-8.05 104.87-11.35 104.59-14.65 104.59-18.05L104.59-18.05 104.59-34.55 110.24-34.55ZM113.64-34.55L135.19-34.55 134.49-29.55 127.39-29.55 127.39 0 121.04 0 121.04-29.55 113.64-29.55 113.64-34.55ZM160.19 0L153.74 0 152.04-8.1 143.14-8.1 141.49 0 135.14 0 143.84-34.55 151.54-34.55 160.19 0ZM147.59-29.7L144.14-12.9 151.09-12.9 147.59-29.7ZM185.43 0L178.58 0 172.48-13.95 171.88-13.95 169.43-13.95 169.43 0 163.08 0 163.08-34.55 171.23-34.55Q183.73-34.55 183.73-24.4L183.73-24.4Q183.73-21.25 182.33-18.82 180.93-16.4 178.13-15.15L178.13-15.15 185.43 0ZM171.53-18.55Q174.48-18.55 175.81-19.95 177.13-21.35 177.13-24.4L177.13-24.4Q177.13-27.25 175.76-28.58 174.38-29.9 171.23-29.9L171.23-29.9 169.43-29.9 169.43-18.55 171.53-18.55ZM188.63-34.55L194.98-34.55 194.98 0 188.63 0 188.63-34.55ZM212.43-35.25Q218.53-35.25 221.83-30.8 225.13-26.35 225.13-17.3L225.13-17.3Q225.13-8.35 221.83-3.8 218.53 0.75 212.43 0.75L212.43 0.75Q206.38 0.75 203.05-3.75 199.73-8.25 199.73-17.25L199.73-17.25Q199.73-26.15 203.05-30.7 206.38-35.25 212.43-35.25L212.43-35.25ZM212.43-30.45Q209.38-30.45 207.9-27.4 206.43-24.35 206.43-17.25L206.43-17.25Q206.43-10.1 207.93-7.13 209.43-4.15 212.43-4.15L212.43-4.15Q215.53-4.15 217-7.1 218.48-10.05 218.48-17.3L218.48-17.3Q218.48-24.4 216.98-27.43 215.48-30.45 212.43-30.45L212.43-30.45Z" opacity="1" transform="matrix(1,0,0,1,0,0)" fill="black" class="wordmark-text-0" id="SvgjsPath1004" stroke-width="7" stroke="black" stroke-linejoin="round"></path></svg></g></svg></g></svg></g></svg></g><g></g></svg></g></svg></g></svg></g></mask><g transform="matrix(1,0,0,1,0,86.49033384246127)"><svg viewBox="0 0 395.52 74.21933231507745" height="74.21933231507745" width="395.52"><g><svg viewBox="0 0 395.52 74.21933231507745" height="74.21933231507745" width="395.52"><g><svg viewBox="0 0 395.52 74.21933231507745" height="74.21933231507745" width="395.52"><g><svg viewBox="0 0 395.52 74.21933231507745" height="74.21933231507745" width="395.52"><g id="textblocktransform"><svg viewBox="0 0 395.52 74.21933231507745" height="74.21933231507745" width="395.52" id="textblock"><g><svg viewBox="0 0 395.52 74.21933231507745" height="74.21933231507745" width="395.52"><g transform="matrix(1,0,0,1,0,0)"><svg width="395.52" viewBox="-1 -39.25 230.13 44" height="74.21933231507745" data-palette-color="#6e45e2"><path d="M3-34.55L9.35-34.55 9.35 0 3 0 3-34.55ZM36.95-34.55L36.95 0 28.85 0 20.1-28.3Q20.5-24.7 20.72-21.68 20.95-18.65 20.95-14.5L20.95-14.5 20.95 0 15.35 0 15.35-34.55 23.4-34.55 32.15-6.25Q31.85-8.05 31.57-11.35 31.3-14.65 31.3-18.05L31.3-18.05 31.3-34.55 36.95-34.55ZM57.85-34.55L64.1-34.55 56.1 0 48.15 0 39.85-34.55 46.3-34.55 52.2-5.6 57.85-34.55ZM66.99-34.55L84.14-34.55 83.49-29.8 73.34-29.8 73.34-19.9 82.19-19.9 82.19-15.2 73.34-15.2 73.34-4.8 84.14-4.8 84.14 0 66.99 0 66.99-34.55ZM110.24-34.55L110.24 0 102.14 0 93.39-28.3Q93.79-24.7 94.02-21.68 94.24-18.65 94.24-14.5L94.24-14.5 94.24 0 88.64 0 88.64-34.55 96.69-34.55 105.44-6.25Q105.14-8.05 104.87-11.35 104.59-14.65 104.59-18.05L104.59-18.05 104.59-34.55 110.24-34.55ZM113.64-34.55L135.19-34.55 134.49-29.55 127.39-29.55 127.39 0 121.04 0 121.04-29.55 113.64-29.55 113.64-34.55ZM160.19 0L153.74 0 152.04-8.1 143.14-8.1 141.49 0 135.14 0 143.84-34.55 151.54-34.55 160.19 0ZM147.59-29.7L144.14-12.9 151.09-12.9 147.59-29.7ZM185.43 0L178.58 0 172.48-13.95 171.88-13.95 169.43-13.95 169.43 0 163.08 0 163.08-34.55 171.23-34.55Q183.73-34.55 183.73-24.4L183.73-24.4Q183.73-21.25 182.33-18.82 180.93-16.4 178.13-15.15L178.13-15.15 185.43 0ZM171.53-18.55Q174.48-18.55 175.81-19.95 177.13-21.35 177.13-24.4L177.13-24.4Q177.13-27.25 175.76-28.58 174.38-29.9 171.23-29.9L171.23-29.9 169.43-29.9 169.43-18.55 171.53-18.55ZM188.63-34.55L194.98-34.55 194.98 0 188.63 0 188.63-34.55ZM212.43-35.25Q218.53-35.25 221.83-30.8 225.13-26.35 225.13-17.3L225.13-17.3Q225.13-8.35 221.83-3.8 218.53 0.75 212.43 0.75L212.43 0.75Q206.38 0.75 203.05-3.75 199.73-8.25 199.73-17.25L199.73-17.25Q199.73-26.15 203.05-30.7 206.38-35.25 212.43-35.25L212.43-35.25ZM212.43-30.45Q209.38-30.45 207.9-27.4 206.43-24.35 206.43-17.25L206.43-17.25Q206.43-10.1 207.93-7.13 209.43-4.15 212.43-4.15L212.43-4.15Q215.53-4.15 217-7.1 218.48-10.05 218.48-17.3L218.48-17.3Q218.48-24.4 216.98-27.43 215.48-30.45 212.43-30.45L212.43-30.45Z" opacity="1" transform="matrix(1,0,0,1,0,0)" fill="#6e45e2" class="wordmark-text-0" data-fill-palette-color="primary" id="text-0"></path></svg></g></svg></g></svg></g></svg></g><g></g></svg></g></svg></g></svg></g><g mask="url(#6350076a-62e7-49ad-afae-7b50fdac06cd)"><g transform="matrix(2.818390804597701, 0, 0, 2.818390804597701, 70.93241379310345, 1)"><svg xmlns="http://www.w3.org/2000/svg" xmlns:xlink="http://www.w3.org/1999/xlink" version="1.1" x="0" y="0" viewBox="5 6.5 90 87" style="enable-background:new 0 0 100 100;" xml:space="preserve" height="87" width="90" class="icon-none" data-fill-palette-color="accent" id="none"><path d="M5 23.264l40 12.972v57.077L5.26 79.786M54.861 93.5L95 79.786v-56.15L54.993 36.051M49.961 29.565l36.723-11.947L49.961 6.5 12.394 17.618" fill="#000000" data-fill-palette-color="accent"></path></svg></g></g></svg></g><defs></defs></svg><rect width="395.52" height="247.2" fill="none" stroke="none" visibility="hidden"></rect></g></svg></g></svg>