<svg xmlns="http://www.w3.org/2000/svg" version="1.1" xmlns:xlink="http://www.w3.org/1999/xlink" xmlns:svgjs="http://svgjs.dev/svgjs" width="1000" height="750" viewBox="0 0 1000 750"><rect width="1000" height="750" fill="#ffffff"></rect><g transform="matrix(0.834,0,0,0.834,82.95940683109927,82.08636923076921)"><svg viewBox="0 0 351 247" data-background-color="#ffffff" preserveAspectRatio="xMidYMid meet" height="703" width="1000" xmlns="http://www.w3.org/2000/svg" xmlns:xlink="http://www.w3.org/1999/xlink"><g id="tight-bounds" transform="matrix(1,0,0,1,0.017084175400668755,-0.09999999999999432)"><svg viewBox="0 0 350.96583164919866 247.2" height="247.2" width="350.96583164919866"><g><svg viewBox="0 0 395.52 278.58137511724135" height="247.2" width="350.96583164919866"><g transform="matrix(1,0,0,1,0,208.93735457432135)"><svg viewBox="0 0 395.52 69.64402054292002" height="69.64402054292002" width="395.52"><g id="textblocktransform"><svg viewBox="0 0 395.52 69.64402054292002" height="69.64402054292002" width="395.52" id="textblock"><g><svg viewBox="0 0 395.52 69.64402054292002" height="69.64402054292002" width="395.52"><g transform="matrix(1,0,0,1,0,0)"><svg width="395.52" viewBox="3 -35.25 204.43 36" height="69.64402054292002" data-palette-color="#6e45e2"><path d="M25.35 0L18.5 0 12.4-13.95 11.8-13.95 9.35-13.95 9.35 0 3 0 3-34.55 11.15-34.55Q23.65-34.55 23.65-24.4L23.65-24.4Q23.65-21.25 22.25-18.82 20.85-16.4 18.05-15.15L18.05-15.15 25.35 0ZM11.45-18.55Q14.4-18.55 15.73-19.95 17.05-21.35 17.05-24.4L17.05-24.4Q17.05-27.25 15.68-28.58 14.3-29.9 11.15-29.9L11.15-29.9 9.35-29.9 9.35-18.55 11.45-18.55ZM28.55-34.55L45.7-34.55 45.05-29.8 34.9-29.8 34.9-19.9 43.75-19.9 43.75-15.2 34.9-15.2 34.9-4.8 45.7-4.8 45.7 0 28.55 0 28.55-34.55ZM62.45-35.25Q65.3-35.25 67.55-34.23 69.8-33.2 71.8-31.25L71.8-31.25 68.6-27.95Q67.05-29.3 65.7-29.88 64.35-30.45 62.65-30.45L62.65-30.45Q59.35-30.45 57.47-27.5 55.6-24.55 55.6-17.3L55.6-17.3Q55.6-12.2 56.27-9.33 56.95-6.45 58.27-5.3 59.6-4.15 61.75-4.15L61.75-4.15Q64-4.15 65.85-5.4L65.85-5.4 65.85-14.75 61.95-14.75 61.3-19.5 71.9-19.5 71.9-2.6Q69.75-1.05 67.12-0.18 64.5 0.7 61.8 0.7L61.8 0.7Q55.35 0.7 52.15-3.68 48.95-8.05 48.95-17.3L48.95-17.3Q48.95-23.3 50.72-27.33 52.5-31.35 55.55-33.3 58.6-35.25 62.45-35.25L62.45-35.25ZM77.09-34.55L83.44-34.55 83.44 0 77.09 0 77.09-34.55ZM98.19-35.25Q101.19-35.25 103.49-34.2 105.79-33.15 107.74-31.05L107.74-31.05 104.79-27.65Q103.24-29.05 101.77-29.75 100.29-30.45 98.64-30.45L98.64-30.45Q96.74-30.45 95.64-29.28 94.54-28.1 94.54-26.2L94.54-26.2Q94.54-24.3 95.69-23.1 96.84-21.9 100.19-20.6L100.19-20.6Q104.49-18.85 106.52-16.5 108.54-14.15 108.54-9.85L108.54-9.85Q108.54-6.9 107.19-4.48 105.84-2.05 103.32-0.65 100.79 0.75 97.44 0.75L97.44 0.75Q93.99 0.75 91.44-0.48 88.89-1.7 86.79-3.95L86.79-3.95 89.99-7.45Q91.79-5.85 93.44-5 95.09-4.15 97.04-4.15L97.04-4.15Q99.34-4.15 100.62-5.58 101.89-7 101.89-9.45L101.89-9.45Q101.89-11.6 100.77-12.98 99.64-14.35 96.59-15.5L96.59-15.5Q91.99-17.35 89.97-19.75 87.94-22.15 87.94-25.75L87.94-25.75Q87.94-28.5 89.27-30.65 90.59-32.8 92.94-34.02 95.29-35.25 98.19-35.25L98.19-35.25ZM110.09-34.55L131.64-34.55 130.94-29.55 123.84-29.55 123.84 0 117.49 0 117.49-29.55 110.09-29.55 110.09-34.55ZM157.04 0L150.19 0 144.09-13.95 143.49-13.95 141.04-13.95 141.04 0 134.69 0 134.69-34.55 142.84-34.55Q155.34-34.55 155.34-24.4L155.34-24.4Q155.34-21.25 153.94-18.82 152.54-16.4 149.74-15.15L149.74-15.15 157.04 0ZM143.14-18.55Q146.09-18.55 147.41-19.95 148.74-21.35 148.74-24.4L148.74-24.4Q148.74-27.25 147.36-28.58 145.99-29.9 142.84-29.9L142.84-29.9 141.04-29.9 141.04-18.55 143.14-18.55ZM182.18 0L175.73 0 174.03-8.1 165.13-8.1 163.48 0 157.13 0 165.83-34.55 173.53-34.55 182.18 0ZM169.58-29.7L166.13-12.9 173.08-12.9 169.58-29.7ZM207.43 0L200.58 0 194.48-13.95 193.88-13.95 191.43-13.95 191.43 0 185.08 0 185.08-34.55 193.23-34.55Q205.73-34.55 205.73-24.4L205.73-24.4Q205.73-21.25 204.33-18.82 202.93-16.4 200.13-15.15L200.13-15.15 207.43 0ZM193.53-18.55Q196.48-18.55 197.81-19.95 199.13-21.35 199.13-24.4L199.13-24.4Q199.13-27.25 197.76-28.58 196.38-29.9 193.23-29.9L193.23-29.9 191.43-29.9 191.43-18.55 193.53-18.55Z" opacity="1" transform="matrix(1,0,0,1,0,0)" fill="#6e45e2" class="wordmark-text-0" data-fill-palette-color="primary" id="text-0"></path></svg></g></svg></g></svg></g></svg></g><g transform="matrix(1,0,0,1,93.07998869942303,0)"><svg viewBox="0 0 209.36002260115393 192.49607278063095" height="192.49607278063095" width="209.36002260115393"><g><svg xmlns="http://www.w3.org/2000/svg" xmlns:xlink="http://www.w3.org/1999/xlink" version="1.1" x="0" y="0" viewBox="0 0 100 91.945" enable-background="new 0 0 100 91.945" xml:space="preserve" width="209.36002260115393" height="192.49607278063095" class="icon-icon-0" data-fill-palette-color="accent" id="icon-0"><g fill="#000000" data-fill-palette-color="accent"><path d="M25.034 30.619c0.018 0.238 0.038 0.475 0.059 0.712C26.687 49.351 37.229 63.273 50 63.273c12.936 0 23.587-14.285 24.965-32.645 0.191-1.318 0.291-2.669 0.291-4.044s-0.1-2.725-0.291-4.044C73.114 9.778 62.641 0 50 0 37.354 0 26.88 9.784 25.034 22.551c-0.19 1.315-0.289 2.663-0.289 4.034 0 0.558 0.021 1.109 0.052 1.658C24.844 29.044 24.92 29.837 25.034 30.619zM34.422 16.285c0 0 17.453 8.488 29.189 0 0 0 6.965 11.021 5.01 15.353l3.545-4.072c-0.016 1.081-0.098 2.146-0.249 3.187C70.708 46.87 61.357 59.412 50 59.412c-11.173 0-20.404-12.138-21.853-27.879 0.983 0.247 2.189 0.724 3.502 1.641C31.649 33.173 29.155 18.363 34.422 16.285z" fill="#000000" data-fill-palette-color="accent"></path><path d="M70.034 59.081C69.939 63.387 59.25 77.88 53.18 85.774l-0.929-13.296c2.319-1.198 4.116-3.692 4.116-6.229 0 0-3.451 1.525-6.967 1.525-3.517 0-6.967-1.525-6.967-1.525 0 2.536 1.797 5.03 4.117 6.229l-0.954 13.646c-5.489-7.808-15.533-22.672-15.629-27.042C13.163 60.616 0 74.742 0 91.945h100C100 74.742 86.837 60.616 70.034 59.081z" fill="#000000" data-fill-palette-color="accent"></path></g></svg></g></svg></g><g></g></svg></g><defs></defs></svg><rect width="350.96583164919866" height="247.2" fill="none" stroke="none" visibility="hidden"></rect></g></svg></g></svg>