<svg xmlns="http://www.w3.org/2000/svg" version="1.1" xmlns:xlink="http://www.w3.org/1999/xlink" xmlns:svgjs="http://svgjs.dev/svgjs" width="1000" height="750" viewBox="0 0 1000 750"><rect width="1000" height="750" fill="#ffffff"></rect><g transform="matrix(0.834,0,0,0.834,83.09105359815493,56.670290223574625)"><svg viewBox="0 0 323 247" data-background-color="#ffffff" preserveAspectRatio="xMidYMid meet" height="764" width="1000" xmlns="http://www.w3.org/2000/svg" xmlns:xlink="http://www.w3.org/1999/xlink"><g id="tight-bounds" transform="matrix(1,0,0,1,-0.035264163314195685,-0.09987431224200805)"><svg viewBox="0 0 323.0705283266284 247.2" height="247.2" width="323.0705283266284"><g><svg viewBox="0 0 395.52000000000004 302.63529300063766" height="247.2" width="323.0705283266284"><g transform="matrix(1,0,0,1,0,226.9779072408077)"><svg viewBox="0 0 395.52000000000004 75.65738575982998" height="75.65738575982998" width="395.52000000000004"><g id="textblocktransform"><svg viewBox="0 0 395.52000000000004 75.65738575982998" height="75.65738575982998" width="395.52000000000004" id="textblock"><g><svg viewBox="0 0 395.52000000000004 75.65738575982998" height="75.65738575982998" width="395.52000000000004"><g transform="matrix(1,0,0,1,0,0)"><svg width="395.52000000000004" viewBox="2.5 -35.25 188.18 36" height="75.65738575982998" data-palette-color="#6e45e2"><path d="M24.35-34.55L24.35-9.7Q24.35-5.15 21.53-2.23 18.7 0.7 13.45 0.7L13.45 0.7Q8.1 0.7 5.3-2.18 2.5-5.05 2.5-9.7L2.5-9.7 2.5-34.55 8.85-34.55 8.85-10Q8.85-7.1 9.95-5.68 11.05-4.25 13.45-4.25L13.45-4.25Q15.8-4.25 16.9-5.68 18-7.1 18-10L18-10 18-34.55 24.35-34.55ZM38.6-35.25Q41.6-35.25 43.9-34.2 46.2-33.15 48.15-31.05L48.15-31.05 45.2-27.65Q43.65-29.05 42.17-29.75 40.7-30.45 39.05-30.45L39.05-30.45Q37.15-30.45 36.05-29.28 34.95-28.1 34.95-26.2L34.95-26.2Q34.95-24.3 36.1-23.1 37.25-21.9 40.6-20.6L40.6-20.6Q44.9-18.85 46.92-16.5 48.95-14.15 48.95-9.85L48.95-9.85Q48.95-6.9 47.6-4.48 46.25-2.05 43.72-0.65 41.2 0.75 37.85 0.75L37.85 0.75Q34.4 0.75 31.85-0.48 29.3-1.7 27.2-3.95L27.2-3.95 30.4-7.45Q32.2-5.85 33.85-5 35.5-4.15 37.45-4.15L37.45-4.15Q39.75-4.15 41.02-5.58 42.3-7 42.3-9.45L42.3-9.45Q42.3-11.6 41.17-12.98 40.05-14.35 37-15.5L37-15.5Q32.4-17.35 30.37-19.75 28.35-22.15 28.35-25.75L28.35-25.75Q28.35-28.5 29.67-30.65 31-32.8 33.35-34.02 35.7-35.25 38.6-35.25L38.6-35.25ZM74.44-34.55L74.44-9.7Q74.44-5.15 71.62-2.23 68.8 0.7 63.55 0.7L63.55 0.7Q58.2 0.7 55.39-2.18 52.59-5.05 52.59-9.7L52.59-9.7 52.59-34.55 58.95-34.55 58.95-10Q58.95-7.1 60.05-5.68 61.14-4.25 63.55-4.25L63.55-4.25Q65.89-4.25 67-5.68 68.09-7.1 68.09-10L68.09-10 68.09-34.55 74.44-34.55ZM101.89 0L95.44 0 93.74-8.1 84.84-8.1 83.19 0 76.84 0 85.54-34.55 93.24-34.55 101.89 0ZM89.29-29.7L85.84-12.9 92.79-12.9 89.29-29.7ZM127.14 0L120.29 0 114.19-13.95 113.59-13.95 111.14-13.95 111.14 0 104.79 0 104.79-34.55 112.94-34.55Q125.44-34.55 125.44-24.4L125.44-24.4Q125.44-21.25 124.04-18.82 122.64-16.4 119.84-15.15L119.84-15.15 127.14 0ZM113.24-18.55Q116.19-18.55 117.51-19.95 118.84-21.35 118.84-24.4L118.84-24.4Q118.84-27.25 117.46-28.58 116.09-29.9 112.94-29.9L112.94-29.9 111.14-29.9 111.14-18.55 113.24-18.55ZM130.34-34.55L136.69-34.55 136.69 0 130.34 0 130.34-34.55ZM154.13-35.25Q160.24-35.25 163.53-30.8 166.84-26.35 166.84-17.3L166.84-17.3Q166.84-8.35 163.53-3.8 160.24 0.75 154.13 0.75L154.13 0.75Q148.09 0.75 144.76-3.75 141.44-8.25 141.44-17.25L141.44-17.25Q141.44-26.15 144.76-30.7 148.09-35.25 154.13-35.25L154.13-35.25ZM154.13-30.45Q151.09-30.45 149.61-27.4 148.13-24.35 148.13-17.25L148.13-17.25Q148.13-10.1 149.63-7.13 151.13-4.15 154.13-4.15L154.13-4.15Q157.24-4.15 158.71-7.1 160.19-10.05 160.19-17.3L160.19-17.3Q160.19-24.4 158.69-27.43 157.19-30.45 154.13-30.45L154.13-30.45ZM180.33-35.25Q183.33-35.25 185.63-34.2 187.93-33.15 189.88-31.05L189.88-31.05 186.93-27.65Q185.38-29.05 183.91-29.75 182.43-30.45 180.78-30.45L180.78-30.45Q178.88-30.45 177.78-29.28 176.68-28.1 176.68-26.2L176.68-26.2Q176.68-24.3 177.83-23.1 178.98-21.9 182.33-20.6L182.33-20.6Q186.63-18.85 188.66-16.5 190.68-14.15 190.68-9.85L190.68-9.85Q190.68-6.9 189.33-4.48 187.98-2.05 185.46-0.65 182.93 0.75 179.58 0.75L179.58 0.75Q176.13 0.75 173.58-0.48 171.03-1.7 168.93-3.95L168.93-3.95 172.13-7.45Q173.93-5.85 175.58-5 177.23-4.15 179.18-4.15L179.18-4.15Q181.48-4.15 182.76-5.58 184.03-7 184.03-9.45L184.03-9.45Q184.03-11.6 182.91-12.98 181.78-14.35 178.73-15.5L178.73-15.5Q174.13-17.35 172.11-19.75 170.08-22.15 170.08-25.75L170.08-25.75Q170.08-28.5 171.41-30.65 172.73-32.8 175.08-34.02 177.43-35.25 180.33-35.25L180.33-35.25Z" opacity="1" transform="matrix(1,0,0,1,0,0)" fill="#6e45e2" class="wordmark-text-0" data-fill-palette-color="primary" id="text-0"></path></svg></g></svg></g></svg></g></svg></g><g transform="matrix(1,0,0,1,58.0464407071978,0)"><svg viewBox="0 0 279.42711858560443 209.11701424017008" height="209.11701424017008" width="279.42711858560443"><g><svg xmlns="http://www.w3.org/2000/svg" xmlns:xlink="http://www.w3.org/1999/xlink" version="1.0" x="0" y="0" viewBox="5.197511199999989 16.729654399999998 89.74840410000003 67.16570099999998" enable-background="new 0 0 100 100" xml:space="preserve" height="209.11701424017008" width="279.42711858560443" class="icon-icon-0" data-fill-palette-color="accent" id="icon-0"><path d="M64.418 55.621C57.334 65.987 54.163 73.996 54.136 74.065c-0.975 2.517-3.367 4.202-6.065 4.272-0.059 0.001-0.117 0.003-0.175 0.002-2.63 0-5.024-1.544-6.105-3.953-7.361-16.409-28.172-27.55-28.374-27.656-2.558-1.343-3.966-4.176-3.491-7.025 0.476-2.85 2.726-5.072 5.581-5.513 2.535-0.391 5.094-0.589 7.601-0.59 8.957 0 16.027 2.512 20.588 4.782 7.185-8.455 15.361-15.274 24.106-20.139-5.165-0.736-12.503-1.515-20.441-1.515-14.689 0-28.21 2.668-28.778 2.781l-0.198 0.044c-6.162 1.509-8.459 5.385-9.893 8.977l-0.037 0.095c-0.133 0.355-3.258 8.852-3.257 21.856 0 12.443 2.86 20.789 3.222 21.797 1.519 4.51 3.821 7.798 10.107 9.201 0.464 0.099 11.551 2.414 27.911 2.414 15.001 0 28.131-2.286 28.683-2.383l0.142-0.026c6.439-1.34 8.274-5.223 9.892-8.65l0.214-0.502c0.139-0.384 3.416-9.548 3.416-22.193 0-8.659-1.502-15.277-2.527-18.786C76.331 39.728 69.127 48.731 64.418 55.621z" fill="#000000" data-fill-palette-color="accent"></path><path d="M45.26 47.132c0 0-8.363-6.838-22.152-6.838-2.074 0-4.273 0.155-6.582 0.511 0 0 22.936 12.039 31.371 30.843 0 0 10.056-25.95 35.628-46.731 3.511-2.853 7.311-5.61 11.421-8.187 0 0-0.012-0.001-0.036 0-0.533 0-7.143 0.08-16.436 3.809C68.996 24.342 56.728 31.941 45.26 47.132z" fill="#000000" data-fill-palette-color="accent"></path></svg></g></svg></g><g></g></svg></g><defs></defs></svg><rect width="323.0705283266284" height="247.2" fill="none" stroke="none" visibility="hidden"></rect></g></svg></g></svg>